<svg width="1001" height="496" viewBox="0 0 1001 496" fill="none" xmlns="http://www.w3.org/2000/svg">
<g opacity="0.29827">
<path d="M1008.08 163.448L443.182 -356.858V-747.19L28.1096 -770C24.9043 -762.456 4.36709 -740.714 7.57176 -728.596C11.43 -714.102 30.8387 -718.735 36.4776 -709.409C43.0661 -698.42 31.7291 -653.749 28.3457 -640.86C21.8759 -616.445 7.09676 -596.665 2.82235 -572.25C-4.35982 -531.263 10.1824 -534.53 37.7242 -508.927C84.141 -465.742 46.9244 -420.952 58.6176 -370.223C68.1146 -328.878 109.605 -307.554 124.8 -266.211C136.553 -234.37 152.697 -226.233 177.746 -202.947C177.153 -217.084 164.51 -258.785 188.253 -255.102C211.817 -251.478 202.736 -216.669 207.247 -202.115C211.045 -189.997 237.933 -165.761 215.616 -154.593C208.196 -150.91 187.066 -165.582 178.577 -169.503C184.572 -150.791 180.774 -131.367 190.271 -113.487C201.608 -92.162 213.835 -100.359 228.853 -88.7754C244.344 -76.8355 242.683 -63.1137 235.797 -45.0554C228.615 -26.2247 221.196 -29.1352 232.592 -6.44342C240.843 9.95119 254.85 30.7421 266.9 43.2164C273.904 50.4634 281.502 52.1267 288.506 61.3932C294.323 69.1155 292.067 79.2142 299.012 86.1638C310.883 98.1037 331.006 98.282 340.384 113.904C350.831 131.309 338.96 144.437 369.706 142.833C371.309 177.643 377.897 209.185 377.541 243.994C394.695 250.825 422.414 242.687 440.399 239.063C458.266 263.18 481.355 246.429 501.774 259.558C510.678 265.26 508.837 279.517 514.239 284.506C525.339 294.723 533.529 288.308 547.301 291.872C557.51 294.486 565.404 301.97 575.138 304.703C584.338 307.257 599.475 301.258 606.301 309.396C614.492 319.138 600.78 336.958 613.127 344.799C623.395 351.333 638.115 335.77 648.088 338.027C659.721 340.7 693.079 371.174 701.271 381.212C710.59 392.677 719.969 414.062 725.25 428.793C733.501 451.841 732.373 463.127 749.408 479.998C760.27 490.75 749.942 491.522 767.63 494.67C779.204 496.749 794.518 488.374 806.212 487.067C830.549 484.394 855.122 489.027 879.102 484.453C901.421 480.176 922.729 473.166 945.64 469.899C965.465 467.048 1000.37 469.246 1017.94 459.801C1036.99 449.643 1038.71 426.654 1011.17 430.932C1008.97 416.26 1018.77 396.003 1007.85 385.847C1023.04 365.056 1028.56 350.384 1030.93 324.959C1032 313.792 1032.48 301.436 1038 292.05C1043.4 282.783 1058.59 277.259 1061.56 269.299C1066.13 256.943 1058.83 251.419 1053.25 244.528C1049.69 240.073 1039.54 242.212 1036.63 238.291C1031.23 231.103 1036.57 223.678 1033.6 216.431C1024.94 195.462 1014.61 187.205 1008.08 163.444C1008.26 167.424 1008.44 171.463 1008.2 175.384" stroke="white" stroke-width="2" stroke-linecap="round" stroke-linejoin="round"/>
</g>
<path d="M730.747 84.3558C728.373 111.603 742.268 119.452 754.542 135.652C758.179 140.453 759.459 148.934 756.861 154.456C751.274 166.332 723.332 153.251 726.684 167.659C730.146 182.54 754.639 201.074 755.8 202.402C765.997 214.057 772.577 245.871 769.822 264.053C767.863 276.99 744.707 275.399 737.092 272.053C687.224 250.137 708.641 250.951 655.209 248.559C651.119 248.376 646.873 248.533 643.261 251.079C639.541 253.703 640.699 262.554 642.589 267.192C648.852 282.562 671.754 307.204 668.863 328.702C667.976 335.299 664.622 339.79 663.636 346.322C662.863 351.438 663.694 357.276 663.723 362.753" stroke="white" stroke-width="2"/>
<path fill-rule="evenodd" clip-rule="evenodd" d="M570 319C571.657 319 573 317.657 573 316C573 314.343 571.657 313 570 313C568.343 313 567 314.343 567 316C567 317.657 568.343 319 570 319Z" fill="#4AF6CD"/>
<path fill-rule="evenodd" clip-rule="evenodd" d="M664.5 370C668.09 370 671 367.09 671 363.5C671 359.91 668.09 357 664.5 357C660.91 357 658 359.91 658 363.5C658 367.09 660.91 370 664.5 370Z" fill="#4AF6CD"/>
<path fill-rule="evenodd" clip-rule="evenodd" d="M725 471C726.657 471 728 469.657 728 468C728 466.343 726.657 465 725 465C723.343 465 722 466.343 722 468C722 469.657 723.343 471 725 471Z" fill="#4AF6CD"/>
<path fill-rule="evenodd" clip-rule="evenodd" d="M365 228C366.657 228 368 226.657 368 225C368 223.343 366.657 222 365 222C363.343 222 362 223.343 362 225C362 226.657 363.343 228 365 228Z" fill="#4AF6CD"/>
<path fill-rule="evenodd" clip-rule="evenodd" d="M729.5 91C733.09 91 736 88.0899 736 84.5C736 80.9101 733.09 78 729.5 78C725.91 78 723 80.9101 723 84.5C723 88.0899 725.91 91 729.5 91Z" fill="#4AF6CD"/>
<path d="M467.414 354.784C468.15 354.784 468.779 354.891 469.302 355.104C469.824 355.307 470.331 355.627 470.822 356.064L469.99 356.992C469.574 356.661 469.163 356.421 468.758 356.272C468.363 356.112 467.936 356.032 467.478 356.032C466.902 356.032 466.427 356.165 466.054 356.432C465.68 356.699 465.494 357.088 465.494 357.6C465.494 357.92 465.558 358.192 465.686 358.416C465.814 358.629 466.048 358.827 466.39 359.008C466.742 359.189 467.248 359.381 467.91 359.584C468.603 359.797 469.179 360.027 469.638 360.272C470.096 360.517 470.464 360.859 470.742 361.296C471.03 361.723 471.174 362.267 471.174 362.928C471.174 363.568 471.014 364.133 470.694 364.624C470.384 365.115 469.931 365.499 469.334 365.776C468.747 366.053 468.048 366.192 467.238 366.192C465.712 366.192 464.464 365.717 463.494 364.768L464.326 363.84C464.774 364.203 465.227 364.48 465.686 364.672C466.144 364.853 466.656 364.944 467.222 364.944C467.904 364.944 468.47 364.779 468.918 364.448C469.366 364.107 469.59 363.616 469.59 362.976C469.59 362.613 469.52 362.315 469.382 362.08C469.243 361.835 469.003 361.616 468.662 361.424C468.331 361.232 467.846 361.04 467.206 360.848C466.075 360.507 465.248 360.096 464.726 359.616C464.203 359.136 463.942 358.485 463.942 357.664C463.942 357.109 464.086 356.613 464.374 356.176C464.672 355.739 465.083 355.397 465.606 355.152C466.139 354.907 466.742 354.784 467.414 354.784ZM476.501 357.376C477.685 357.376 478.602 357.771 479.253 358.56C479.914 359.349 480.245 360.421 480.245 361.776C480.245 362.651 480.095 363.424 479.797 364.096C479.498 364.757 479.066 365.275 478.501 365.648C477.935 366.011 477.263 366.192 476.485 366.192C475.301 366.192 474.378 365.797 473.717 365.008C473.055 364.219 472.725 363.147 472.725 361.792C472.725 360.917 472.874 360.149 473.173 359.488C473.471 358.816 473.903 358.299 474.469 357.936C475.034 357.563 475.711 357.376 476.501 357.376ZM476.501 358.56C475.039 358.56 474.309 359.637 474.309 361.792C474.309 363.936 475.034 365.008 476.485 365.008C477.935 365.008 478.661 363.931 478.661 361.776C478.661 359.632 477.941 358.56 476.501 358.56ZM488.948 366H487.684L487.572 364.688C487.252 365.211 486.884 365.595 486.468 365.84C486.052 366.075 485.546 366.192 484.948 366.192C484.212 366.192 483.636 365.968 483.22 365.52C482.804 365.072 482.596 364.437 482.596 363.616V357.568H484.068V363.456C484.068 364.032 484.17 364.443 484.372 364.688C484.575 364.923 484.906 365.04 485.364 365.04C486.186 365.04 486.89 364.555 487.476 363.584V357.568H488.948V366ZM496.245 365.616C495.69 366 495.061 366.192 494.357 366.192C493.642 366.192 493.082 365.989 492.677 365.584C492.282 365.168 492.085 364.571 492.085 363.792V358.704H490.613V357.568H492.085V355.664L493.557 355.488V357.568H495.557L495.397 358.704H493.557V363.728C493.557 364.165 493.631 364.485 493.781 364.688C493.941 364.88 494.202 364.976 494.565 364.976C494.895 364.976 495.269 364.864 495.685 364.64L496.245 365.616ZM501.738 357.376C502.506 357.376 503.103 357.605 503.53 358.064C503.967 358.523 504.186 359.152 504.186 359.952V366H502.714V360.16C502.714 359.563 502.597 359.141 502.362 358.896C502.138 358.651 501.807 358.528 501.37 358.528C500.933 358.528 500.543 358.656 500.202 358.912C499.861 359.168 499.541 359.531 499.242 360V366H497.77V354.192L499.242 354.032V358.736C499.903 357.829 500.735 357.376 501.738 357.376ZM514.179 354.784C514.915 354.784 515.545 354.891 516.067 355.104C516.59 355.307 517.097 355.627 517.587 356.064L516.755 356.992C516.339 356.661 515.929 356.421 515.523 356.272C515.129 356.112 514.702 356.032 514.243 356.032C513.667 356.032 513.193 356.165 512.819 356.432C512.446 356.699 512.259 357.088 512.259 357.6C512.259 357.92 512.323 358.192 512.451 358.416C512.579 358.629 512.814 358.827 513.155 359.008C513.507 359.189 514.014 359.381 514.675 359.584C515.369 359.797 515.945 360.027 516.403 360.272C516.862 360.517 517.23 360.859 517.507 361.296C517.795 361.723 517.939 362.267 517.939 362.928C517.939 363.568 517.779 364.133 517.459 364.624C517.15 365.115 516.697 365.499 516.099 365.776C515.513 366.053 514.814 366.192 514.003 366.192C512.478 366.192 511.23 365.717 510.259 364.768L511.091 363.84C511.539 364.203 511.993 364.48 512.451 364.672C512.91 364.853 513.422 364.944 513.987 364.944C514.67 364.944 515.235 364.779 515.683 364.448C516.131 364.107 516.355 363.616 516.355 362.976C516.355 362.613 516.286 362.315 516.147 362.08C516.009 361.835 515.769 361.616 515.427 361.424C515.097 361.232 514.611 361.04 513.971 360.848C512.841 360.507 512.014 360.096 511.491 359.616C510.969 359.136 510.707 358.485 510.707 357.664C510.707 357.109 510.851 356.613 511.139 356.176C511.438 355.739 511.849 355.397 512.371 355.152C512.905 354.907 513.507 354.784 514.179 354.784ZM524.066 357.376C524.834 357.376 525.431 357.605 525.858 358.064C526.295 358.523 526.514 359.152 526.514 359.952V366H525.042V360.16C525.042 359.563 524.925 359.141 524.69 358.896C524.466 358.651 524.135 358.528 523.698 358.528C523.261 358.528 522.871 358.656 522.53 358.912C522.189 359.168 521.869 359.531 521.57 360V366H520.098V354.192L521.57 354.032V358.736C522.231 357.829 523.063 357.376 524.066 357.376ZM532.641 357.376C533.825 357.376 534.742 357.771 535.393 358.56C536.054 359.349 536.385 360.421 536.385 361.776C536.385 362.651 536.236 363.424 535.937 364.096C535.638 364.757 535.206 365.275 534.641 365.648C534.076 366.011 533.404 366.192 532.625 366.192C531.441 366.192 530.518 365.797 529.857 365.008C529.196 364.219 528.865 363.147 528.865 361.792C528.865 360.917 529.014 360.149 529.313 359.488C529.612 358.816 530.044 358.299 530.609 357.936C531.174 357.563 531.852 357.376 532.641 357.376ZM532.641 358.56C531.18 358.56 530.449 359.637 530.449 361.792C530.449 363.936 531.174 365.008 532.625 365.008C534.076 365.008 534.801 363.931 534.801 361.776C534.801 359.632 534.081 358.56 532.641 358.56ZM542.481 357.376C542.78 357.376 543.057 357.408 543.313 357.472L543.041 358.912C542.785 358.848 542.54 358.816 542.305 358.816C541.782 358.816 541.361 359.008 541.041 359.392C540.721 359.776 540.47 360.373 540.289 361.184V366H538.817V357.568H540.081L540.225 359.28C540.449 358.651 540.753 358.176 541.137 357.856C541.521 357.536 541.969 357.376 542.481 357.376ZM550.872 361.536C550.872 361.781 550.862 362.032 550.84 362.288H545.464C545.528 363.216 545.763 363.899 546.168 364.336C546.574 364.773 547.096 364.992 547.736 364.992C548.142 364.992 548.515 364.933 548.856 364.816C549.198 364.699 549.555 364.512 549.928 364.256L550.568 365.136C549.672 365.84 548.691 366.192 547.624 366.192C546.451 366.192 545.534 365.808 544.872 365.04C544.222 364.272 543.896 363.216 543.896 361.872C543.896 360.997 544.035 360.224 544.312 359.552C544.6 358.869 545.006 358.336 545.528 357.952C546.062 357.568 546.686 357.376 547.4 357.376C548.52 357.376 549.379 357.744 549.976 358.48C550.574 359.216 550.872 360.235 550.872 361.536ZM549.416 361.104C549.416 360.272 549.251 359.637 548.92 359.2C548.59 358.763 548.094 358.544 547.432 358.544C546.227 358.544 545.571 359.429 545.464 361.2H549.416V361.104ZM559.41 353.184V367.568H559.058V353.184H559.41ZM578.237 366H576.765L576.381 361.024C576.221 359.072 576.131 357.573 576.109 356.528L573.725 364.752H572.301L569.789 356.512C569.789 357.845 569.72 359.387 569.581 361.136L569.213 366H567.773L568.685 354.976H570.733L573.053 362.992L575.261 354.976H577.325L578.237 366ZM586.434 364.032C586.434 364.373 586.493 364.629 586.61 364.8C586.728 364.96 586.904 365.083 587.138 365.168L586.802 366.192C586.365 366.139 586.013 366.016 585.746 365.824C585.48 365.632 585.282 365.333 585.154 364.928C584.589 365.771 583.752 366.192 582.642 366.192C581.81 366.192 581.154 365.957 580.674 365.488C580.194 365.019 579.954 364.405 579.954 363.648C579.954 362.752 580.274 362.064 580.914 361.584C581.565 361.104 582.482 360.864 583.666 360.864H584.962V360.24C584.962 359.643 584.818 359.216 584.53 358.96C584.242 358.704 583.8 358.576 583.202 358.576C582.584 358.576 581.826 358.725 580.93 359.024L580.562 357.952C581.608 357.568 582.578 357.376 583.474 357.376C584.466 357.376 585.208 357.621 585.698 358.112C586.189 358.592 586.434 359.28 586.434 360.176V364.032ZM582.978 365.088C583.821 365.088 584.482 364.651 584.962 363.776V361.84H583.858C582.301 361.84 581.522 362.416 581.522 363.568C581.522 364.069 581.645 364.448 581.89 364.704C582.136 364.96 582.498 365.088 582.978 365.088ZM590.981 366.192C590.437 366.192 590.005 366.032 589.685 365.712C589.376 365.381 589.221 364.923 589.221 364.336V354.176L590.693 354V364.304C590.693 364.539 590.731 364.709 590.805 364.816C590.891 364.923 591.029 364.976 591.221 364.976C591.424 364.976 591.605 364.944 591.765 364.88L592.149 365.904C591.797 366.096 591.408 366.192 590.981 366.192ZM595.461 357.568V366H593.989V357.568H595.461ZM594.709 353.52C595.018 353.52 595.269 353.616 595.461 353.808C595.653 354 595.749 354.24 595.749 354.528C595.749 354.816 595.653 355.056 595.461 355.248C595.269 355.429 595.018 355.52 594.709 355.52C594.41 355.52 594.165 355.429 593.973 355.248C593.781 355.056 593.685 354.816 593.685 354.528C593.685 354.24 593.781 354 593.973 353.808C594.165 353.616 594.41 353.52 594.709 353.52ZM602.36 357.376C603.32 357.376 604.083 357.765 604.648 358.544C605.214 359.312 605.496 360.389 605.496 361.776C605.496 362.651 605.363 363.424 605.096 364.096C604.83 364.757 604.446 365.275 603.944 365.648C603.443 366.011 602.856 366.192 602.184 366.192C601.299 366.192 600.552 365.819 599.944 365.072L599.8 366H598.504V354.176L599.976 354V358.624C600.584 357.792 601.379 357.376 602.36 357.376ZM601.832 365.024C602.483 365.024 602.99 364.763 603.352 364.24C603.726 363.707 603.912 362.885 603.912 361.776C603.912 360.635 603.742 359.813 603.4 359.312C603.059 358.8 602.574 358.544 601.944 358.544C601.198 358.544 600.542 358.981 599.976 359.856V363.888C600.2 364.24 600.472 364.517 600.792 364.72C601.123 364.923 601.47 365.024 601.832 365.024ZM614.276 366H613.012L612.9 364.688C612.58 365.211 612.212 365.595 611.796 365.84C611.38 366.075 610.874 366.192 610.276 366.192C609.54 366.192 608.964 365.968 608.548 365.52C608.132 365.072 607.924 364.437 607.924 363.616V357.568H609.396V363.456C609.396 364.032 609.498 364.443 609.7 364.688C609.903 364.923 610.234 365.04 610.692 365.04C611.514 365.04 612.218 364.555 612.804 363.584V357.568H614.276V366ZM617.701 363.968C618.021 363.968 618.288 364.075 618.501 364.288C618.714 364.501 618.821 364.763 618.821 365.072C618.821 365.403 618.725 365.781 618.533 366.208L617.461 368.656H616.405L617.045 366C616.906 365.893 616.794 365.76 616.709 365.6C616.634 365.44 616.597 365.264 616.597 365.072C616.597 364.763 616.704 364.501 616.917 364.288C617.13 364.075 617.392 363.968 617.701 363.968ZM629.331 354.784C629.992 354.784 630.547 354.869 630.995 355.04C631.454 355.211 631.918 355.488 632.387 355.872L631.555 356.848C630.883 356.304 630.174 356.032 629.427 356.032C628.51 356.032 627.768 356.384 627.203 357.088C626.648 357.792 626.371 358.923 626.371 360.48C626.371 361.995 626.648 363.115 627.203 363.84C627.758 364.555 628.494 364.912 629.411 364.912C629.88 364.912 630.291 364.832 630.643 364.672C630.995 364.512 631.368 364.288 631.763 364L632.515 364.96C632.174 365.312 631.736 365.605 631.203 365.84C630.67 366.075 630.056 366.192 629.363 366.192C628.467 366.192 627.667 365.973 626.963 365.536C626.27 365.088 625.726 364.437 625.331 363.584C624.947 362.72 624.755 361.685 624.755 360.48C624.755 359.275 624.958 358.245 625.363 357.392C625.768 356.528 626.318 355.877 627.011 355.44C627.704 355.003 628.478 354.784 629.331 354.784ZM640.3 366L639.468 363.232H635.292L634.46 366H632.924L636.46 354.976H638.38L641.9 366H640.3ZM635.66 362H639.1L637.388 356.24L635.66 362Z" fill="white"/>
<path d="M598.378 75.784C599.039 75.784 599.594 75.8693 600.042 76.04C600.501 76.2107 600.965 76.488 601.434 76.872L600.602 77.848C599.93 77.304 599.221 77.032 598.474 77.032C597.557 77.032 596.815 77.384 596.25 78.088C595.695 78.792 595.418 79.9227 595.418 81.48C595.418 82.9947 595.695 84.1147 596.25 84.84C596.805 85.5547 597.541 85.912 598.458 85.912C598.927 85.912 599.338 85.832 599.69 85.672C600.042 85.512 600.415 85.288 600.81 85L601.562 85.96C601.221 86.312 600.783 86.6053 600.25 86.84C599.717 87.0747 599.103 87.192 598.41 87.192C597.514 87.192 596.714 86.9733 596.01 86.536C595.317 86.088 594.773 85.4373 594.378 84.584C593.994 83.72 593.802 82.6853 593.802 81.48C593.802 80.2747 594.005 79.2453 594.41 78.392C594.815 77.528 595.365 76.8773 596.058 76.44C596.751 76.0027 597.525 75.784 598.378 75.784ZM609.401 87H608.137L608.025 85.688C607.705 86.2107 607.337 86.5947 606.921 86.84C606.505 87.0747 605.999 87.192 605.401 87.192C604.665 87.192 604.089 86.968 603.673 86.52C603.257 86.072 603.049 85.4373 603.049 84.616V78.568H604.521V84.456C604.521 85.032 604.623 85.4427 604.825 85.688C605.028 85.9227 605.359 86.04 605.817 86.04C606.639 86.04 607.343 85.5547 607.929 84.584V78.568H609.401V87ZM616.106 78.376C616.405 78.376 616.682 78.408 616.938 78.472L616.666 79.912C616.41 79.848 616.165 79.816 615.93 79.816C615.407 79.816 614.986 80.008 614.666 80.392C614.346 80.776 614.095 81.3733 613.914 82.184V87H612.442V78.568H613.706L613.85 80.28C614.074 79.6507 614.378 79.176 614.762 78.856C615.146 78.536 615.594 78.376 616.106 78.376ZM622.278 78.376C622.576 78.376 622.854 78.408 623.11 78.472L622.838 79.912C622.582 79.848 622.336 79.816 622.102 79.816C621.579 79.816 621.158 80.008 620.838 80.392C620.518 80.776 620.267 81.3733 620.086 82.184V87H618.614V78.568H619.878L620.022 80.28C620.246 79.6507 620.55 79.176 620.934 78.856C621.318 78.536 621.766 78.376 622.278 78.376ZM630.669 82.536C630.669 82.7813 630.659 83.032 630.637 83.288H625.261C625.325 84.216 625.56 84.8987 625.965 85.336C626.371 85.7733 626.893 85.992 627.533 85.992C627.939 85.992 628.312 85.9333 628.653 85.816C628.995 85.6987 629.352 85.512 629.725 85.256L630.365 86.136C629.469 86.84 628.488 87.192 627.421 87.192C626.248 87.192 625.331 86.808 624.669 86.04C624.019 85.272 623.693 84.216 623.693 82.872C623.693 81.9973 623.832 81.224 624.109 80.552C624.397 79.8693 624.803 79.336 625.325 78.952C625.859 78.568 626.483 78.376 627.197 78.376C628.317 78.376 629.176 78.744 629.773 79.48C630.371 80.216 630.669 81.2347 630.669 82.536ZM629.213 82.104C629.213 81.272 629.048 80.6373 628.717 80.2C628.387 79.7627 627.891 79.544 627.229 79.544C626.024 79.544 625.368 80.4293 625.261 82.2H629.213V82.104ZM636.988 78.376C637.756 78.376 638.353 78.6053 638.78 79.064C639.217 79.5227 639.436 80.152 639.436 80.952V87H637.964V81.16C637.964 80.5627 637.852 80.1413 637.628 79.896C637.404 79.6507 637.073 79.528 636.636 79.528C636.188 79.528 635.793 79.656 635.452 79.912C635.111 80.168 634.791 80.536 634.492 81.016V87H633.02V78.568H634.284L634.412 79.816C634.711 79.368 635.079 79.016 635.516 78.76C635.964 78.504 636.455 78.376 636.988 78.376ZM646.651 86.616C646.096 87 645.467 87.192 644.763 87.192C644.048 87.192 643.488 86.9893 643.083 86.584C642.688 86.168 642.491 85.5707 642.491 84.792V79.704H641.019V78.568H642.491V76.664L643.963 76.488V78.568H645.963L645.803 79.704H643.963V84.728C643.963 85.1653 644.038 85.4853 644.187 85.688C644.347 85.88 644.608 85.976 644.971 85.976C645.302 85.976 645.675 85.864 646.091 85.64L646.651 86.616ZM654.011 75.976V85.672H658.539L658.363 87H652.491V75.976H654.011ZM663.141 78.376C664.325 78.376 665.242 78.7707 665.893 79.56C666.554 80.3493 666.885 81.4213 666.885 82.776C666.885 83.6507 666.736 84.424 666.437 85.096C666.138 85.7573 665.706 86.2747 665.141 86.648C664.576 87.0107 663.904 87.192 663.125 87.192C661.941 87.192 661.018 86.7973 660.357 86.008C659.696 85.2187 659.365 84.1467 659.365 82.792C659.365 81.9173 659.514 81.1493 659.813 80.488C660.112 79.816 660.544 79.2987 661.109 78.936C661.674 78.5627 662.352 78.376 663.141 78.376ZM663.141 79.56C661.68 79.56 660.949 80.6373 660.949 82.792C660.949 84.936 661.674 86.008 663.125 86.008C664.576 86.008 665.301 84.9307 665.301 82.776C665.301 80.632 664.581 79.56 663.141 79.56ZM672.389 78.376C672.89 78.376 673.349 78.4507 673.765 78.6C674.181 78.7387 674.581 78.968 674.965 79.288L674.261 80.216C673.962 80.0027 673.669 79.848 673.381 79.752C673.104 79.6453 672.794 79.592 672.453 79.592C671.77 79.592 671.237 79.864 670.853 80.408C670.48 80.952 670.293 81.7573 670.293 82.824C670.293 83.8907 670.48 84.68 670.853 85.192C671.226 85.6933 671.76 85.944 672.453 85.944C672.784 85.944 673.088 85.896 673.365 85.8C673.642 85.6933 673.952 85.528 674.293 85.304L674.965 86.264C674.197 86.8827 673.338 87.192 672.389 87.192C671.248 87.192 670.346 86.808 669.685 86.04C669.034 85.272 668.709 84.2107 668.709 82.856C668.709 81.96 668.858 81.176 669.157 80.504C669.456 79.832 669.877 79.3093 670.421 78.936C670.976 78.5627 671.632 78.376 672.389 78.376ZM682.481 85.032C682.481 85.3733 682.54 85.6293 682.657 85.8C682.775 85.96 682.951 86.0827 683.185 86.168L682.849 87.192C682.412 87.1387 682.06 87.016 681.793 86.824C681.527 86.632 681.329 86.3333 681.201 85.928C680.636 86.7707 679.799 87.192 678.689 87.192C677.857 87.192 677.201 86.9573 676.721 86.488C676.241 86.0187 676.001 85.4053 676.001 84.648C676.001 83.752 676.321 83.064 676.961 82.584C677.612 82.104 678.529 81.864 679.713 81.864H681.009V81.24C681.009 80.6427 680.865 80.216 680.577 79.96C680.289 79.704 679.847 79.576 679.249 79.576C678.631 79.576 677.873 79.7253 676.977 80.024L676.609 78.952C677.655 78.568 678.625 78.376 679.521 78.376C680.513 78.376 681.255 78.6213 681.745 79.112C682.236 79.592 682.481 80.28 682.481 81.176V85.032ZM679.025 86.088C679.868 86.088 680.529 85.6507 681.009 84.776V82.84H679.905C678.348 82.84 677.569 83.416 677.569 84.568C677.569 85.0693 677.692 85.448 677.937 85.704C678.183 85.96 678.545 86.088 679.025 86.088ZM689.76 86.616C689.206 87 688.576 87.192 687.872 87.192C687.158 87.192 686.598 86.9893 686.192 86.584C685.798 86.168 685.6 85.5707 685.6 84.792V79.704H684.128V78.568H685.6V76.664L687.072 76.488V78.568H689.072L688.912 79.704H687.072V84.728C687.072 85.1653 687.147 85.4853 687.296 85.688C687.456 85.88 687.718 85.976 688.08 85.976C688.411 85.976 688.784 85.864 689.2 85.64L689.76 86.616ZM692.758 78.568V87H691.286V78.568H692.758ZM692.006 74.52C692.315 74.52 692.566 74.616 692.758 74.808C692.95 75 693.046 75.24 693.046 75.528C693.046 75.816 692.95 76.056 692.758 76.248C692.566 76.4293 692.315 76.52 692.006 76.52C691.707 76.52 691.462 76.4293 691.27 76.248C691.078 76.056 690.982 75.816 690.982 75.528C690.982 75.24 691.078 75 691.27 74.808C691.462 74.616 691.707 74.52 692.006 74.52ZM698.969 78.376C700.153 78.376 701.071 78.7707 701.721 79.56C702.383 80.3493 702.713 81.4213 702.713 82.776C702.713 83.6507 702.564 84.424 702.265 85.096C701.967 85.7573 701.535 86.2747 700.969 86.648C700.404 87.0107 699.732 87.192 698.953 87.192C697.769 87.192 696.847 86.7973 696.185 86.008C695.524 85.2187 695.193 84.1467 695.193 82.792C695.193 81.9173 695.343 81.1493 695.641 80.488C695.94 79.816 696.372 79.2987 696.937 78.936C697.503 78.5627 698.18 78.376 698.969 78.376ZM698.969 79.56C697.508 79.56 696.777 80.6373 696.777 82.792C696.777 84.936 697.503 86.008 698.953 86.008C700.404 86.008 701.129 84.9307 701.129 82.776C701.129 80.632 700.409 79.56 698.969 79.56ZM709.113 78.376C709.881 78.376 710.478 78.6053 710.905 79.064C711.342 79.5227 711.561 80.152 711.561 80.952V87H710.089V81.16C710.089 80.5627 709.977 80.1413 709.753 79.896C709.529 79.6507 709.198 79.528 708.761 79.528C708.313 79.528 707.918 79.656 707.577 79.912C707.236 80.168 706.916 80.536 706.617 81.016V87H705.145V78.568H706.409L706.537 79.816C706.836 79.368 707.204 79.016 707.641 78.76C708.089 78.504 708.58 78.376 709.113 78.376Z" fill="white"/>
</svg>
