<svg width="1001" height="496" viewBox="0 0 1001 496" fill="none" xmlns="http://www.w3.org/2000/svg">
<g opacity="0.29827">
<path d="M1008.08 163.448L443.182 -356.858V-747.19L28.1096 -770C24.9043 -762.456 4.36709 -740.714 7.57176 -728.596C11.43 -714.102 30.8387 -718.735 36.4776 -709.409C43.0661 -698.42 31.7291 -653.749 28.3457 -640.86C21.8759 -616.445 7.09676 -596.665 2.82235 -572.25C-4.35982 -531.263 10.1824 -534.53 37.7242 -508.927C84.141 -465.742 46.9244 -420.952 58.6176 -370.223C68.1146 -328.878 109.605 -307.554 124.8 -266.211C136.553 -234.37 152.697 -226.233 177.746 -202.947C177.153 -217.084 164.51 -258.785 188.253 -255.102C211.817 -251.478 202.736 -216.669 207.247 -202.115C211.045 -189.997 237.933 -165.761 215.616 -154.593C208.196 -150.91 187.066 -165.582 178.577 -169.503C184.572 -150.791 180.774 -131.367 190.271 -113.487C201.608 -92.162 213.835 -100.359 228.853 -88.7754C244.344 -76.8355 242.683 -63.1137 235.797 -45.0554C228.615 -26.2247 221.196 -29.1352 232.592 -6.44342C240.843 9.95119 254.85 30.7421 266.9 43.2164C273.904 50.4634 281.502 52.1267 288.506 61.3932C294.323 69.1155 292.067 79.2142 299.012 86.1638C310.883 98.1037 331.006 98.282 340.384 113.904C350.831 131.309 338.96 144.437 369.706 142.833C371.309 177.643 377.897 209.185 377.541 243.994C394.695 250.825 422.414 242.687 440.399 239.063C458.266 263.18 481.355 246.429 501.774 259.558C510.678 265.26 508.837 279.517 514.239 284.506C525.339 294.723 533.529 288.308 547.301 291.872C557.51 294.486 565.404 301.97 575.138 304.703C584.338 307.257 599.475 301.258 606.301 309.396C614.492 319.138 600.78 336.958 613.127 344.799C623.395 351.333 638.115 335.77 648.088 338.027C659.721 340.7 693.079 371.174 701.271 381.212C710.59 392.677 719.969 414.062 725.25 428.793C733.501 451.841 732.373 463.127 749.408 479.998C760.27 490.75 749.942 491.522 767.63 494.67C779.204 496.749 794.518 488.374 806.212 487.067C830.549 484.394 855.122 489.027 879.102 484.453C901.421 480.176 922.729 473.166 945.64 469.899C965.465 467.048 1000.37 469.246 1017.94 459.801C1036.99 449.643 1038.71 426.654 1011.17 430.932C1008.97 416.26 1018.77 396.003 1007.85 385.847C1023.04 365.056 1028.56 350.384 1030.93 324.959C1032 313.792 1032.48 301.436 1038 292.05C1043.4 282.783 1058.59 277.259 1061.56 269.299C1066.13 256.943 1058.83 251.419 1053.25 244.528C1049.69 240.073 1039.54 242.212 1036.63 238.291C1031.23 231.103 1036.57 223.678 1033.6 216.431C1024.94 195.462 1014.61 187.205 1008.08 163.444C1008.26 167.424 1008.44 171.463 1008.2 175.384" stroke="white" stroke-width="2" stroke-linecap="round" stroke-linejoin="round"/>
</g>
<path d="M731.632 86.9074C734.054 124.784 743.898 136.688 753.924 160.142C756.895 167.092 758.916 179.019 758.079 186.551C756.278 202.749 736.87 182.582 741.041 202.925C745.349 223.936 763.376 251.481 764.296 253.413C772.366 270.38 781.061 315.242 781.943 340.437C782.571 358.364 767.815 354.565 762.557 349.373C728.126 315.376 741.679 317.973 707.814 310.99C705.221 310.455 702.58 310.385 700.68 313.694C698.723 317.102 700.72 329.538 702.571 336.142C708.707 358.026 726.613 393.99 727.885 423.805C728.275 432.953 726.816 438.995 727.135 448.046C727.385 455.135 728.744 463.342 729.548 470.99" stroke="white" stroke-width="2"/>
<path fill-rule="evenodd" clip-rule="evenodd" d="M570 319C571.657 319 573 317.657 573 316C573 314.343 571.657 313 570 313C568.343 313 567 314.343 567 316C567 317.657 568.343 319 570 319Z" fill="#4AF6CD"/>
<path fill-rule="evenodd" clip-rule="evenodd" d="M661 363C662.657 363 664 361.657 664 360C664 358.343 662.657 357 661 357C659.343 357 658 358.343 658 360C658 361.657 659.343 363 661 363Z" fill="#4AF6CD"/>
<path fill-rule="evenodd" clip-rule="evenodd" d="M728.5 478C732.09 478 735 475.09 735 471.5C735 467.91 732.09 465 728.5 465C724.91 465 722 467.91 722 471.5C722 475.09 724.91 478 728.5 478Z" fill="#4AF6CD"/>
<path fill-rule="evenodd" clip-rule="evenodd" d="M365 228C366.657 228 368 226.657 368 225C368 223.343 366.657 222 365 222C363.343 222 362 223.343 362 225C362 226.657 363.343 228 365 228Z" fill="#4AF6CD"/>
<path fill-rule="evenodd" clip-rule="evenodd" d="M729.5 91C733.09 91 736 88.0899 736 84.5C736 80.9101 733.09 78 729.5 78C725.91 78 723 80.9101 723 84.5C723 88.0899 725.91 91 729.5 91Z" fill="#4AF6CD"/>
<path d="M544.865 462.976L544.689 464.192H540.417V467.792H544.129V469.008H540.417V472.784H544.993V474H538.897V462.976H544.865ZM552.872 472.032C552.872 472.373 552.931 472.629 553.048 472.8C553.165 472.96 553.341 473.083 553.576 473.168L553.24 474.192C552.803 474.139 552.451 474.016 552.184 473.824C551.917 473.632 551.72 473.333 551.592 472.928C551.027 473.771 550.189 474.192 549.08 474.192C548.248 474.192 547.592 473.957 547.112 473.488C546.632 473.019 546.392 472.405 546.392 471.648C546.392 470.752 546.712 470.064 547.352 469.584C548.003 469.104 548.92 468.864 550.104 468.864H551.4V468.24C551.4 467.643 551.256 467.216 550.968 466.96C550.68 466.704 550.237 466.576 549.64 466.576C549.021 466.576 548.264 466.725 547.368 467.024L547 465.952C548.045 465.568 549.016 465.376 549.912 465.376C550.904 465.376 551.645 465.621 552.136 466.112C552.627 466.592 552.872 467.28 552.872 468.176V472.032ZM549.416 473.088C550.259 473.088 550.92 472.651 551.4 471.776V469.84H550.296C548.739 469.84 547.96 470.416 547.96 471.568C547.96 472.069 548.083 472.448 548.328 472.704C548.573 472.96 548.936 473.088 549.416 473.088ZM558.183 465.376C558.759 465.376 559.276 465.456 559.735 465.616C560.194 465.776 560.631 466.016 561.047 466.336L560.423 467.264C560.039 467.019 559.671 466.837 559.319 466.72C558.978 466.603 558.615 466.544 558.231 466.544C557.751 466.544 557.372 466.645 557.095 466.848C556.818 467.04 556.679 467.307 556.679 467.648C556.679 467.989 556.807 468.256 557.063 468.448C557.33 468.64 557.804 468.827 558.487 469.008C559.426 469.243 560.124 469.563 560.583 469.968C561.052 470.373 561.287 470.928 561.287 471.632C561.287 472.464 560.962 473.099 560.311 473.536C559.671 473.973 558.887 474.192 557.959 474.192C556.679 474.192 555.618 473.824 554.775 473.088L555.559 472.192C556.274 472.736 557.063 473.008 557.927 473.008C558.482 473.008 558.919 472.896 559.239 472.672C559.57 472.437 559.735 472.123 559.735 471.728C559.735 471.44 559.676 471.211 559.559 471.04C559.442 470.859 559.239 470.704 558.951 470.576C558.663 470.437 558.242 470.293 557.687 470.144C556.791 469.909 556.14 469.595 555.735 469.2C555.34 468.805 555.143 468.304 555.143 467.696C555.143 467.259 555.271 466.864 555.527 466.512C555.794 466.149 556.156 465.872 556.615 465.68C557.084 465.477 557.607 465.376 558.183 465.376ZM567.62 473.616C567.065 474 566.436 474.192 565.732 474.192C565.017 474.192 564.457 473.989 564.052 473.584C563.657 473.168 563.46 472.571 563.46 471.792V466.704H561.988V465.568H563.46V463.664L564.932 463.488V465.568H566.932L566.772 466.704H564.932V471.728C564.932 472.165 565.006 472.485 565.156 472.688C565.316 472.88 565.577 472.976 565.94 472.976C566.27 472.976 566.644 472.864 567.06 472.64L567.62 473.616ZM576.179 462.784C576.915 462.784 577.545 462.891 578.067 463.104C578.59 463.307 579.097 463.627 579.587 464.064L578.755 464.992C578.339 464.661 577.929 464.421 577.523 464.272C577.129 464.112 576.702 464.032 576.243 464.032C575.667 464.032 575.193 464.165 574.819 464.432C574.446 464.699 574.259 465.088 574.259 465.6C574.259 465.92 574.323 466.192 574.451 466.416C574.579 466.629 574.814 466.827 575.155 467.008C575.507 467.189 576.014 467.381 576.675 467.584C577.369 467.797 577.945 468.027 578.403 468.272C578.862 468.517 579.23 468.859 579.507 469.296C579.795 469.723 579.939 470.267 579.939 470.928C579.939 471.568 579.779 472.133 579.459 472.624C579.15 473.115 578.697 473.499 578.099 473.776C577.513 474.053 576.814 474.192 576.003 474.192C574.478 474.192 573.23 473.717 572.259 472.768L573.091 471.84C573.539 472.203 573.993 472.48 574.451 472.672C574.91 472.853 575.422 472.944 575.987 472.944C576.67 472.944 577.235 472.779 577.683 472.448C578.131 472.107 578.355 471.616 578.355 470.976C578.355 470.613 578.286 470.315 578.147 470.08C578.009 469.835 577.769 469.616 577.427 469.424C577.097 469.232 576.611 469.04 575.971 468.848C574.841 468.507 574.014 468.096 573.491 467.616C572.969 467.136 572.707 466.485 572.707 465.664C572.707 465.109 572.851 464.613 573.139 464.176C573.438 463.739 573.849 463.397 574.371 463.152C574.905 462.907 575.507 462.784 576.179 462.784ZM586.066 465.376C586.834 465.376 587.431 465.605 587.858 466.064C588.295 466.523 588.514 467.152 588.514 467.952V474H587.042V468.16C587.042 467.563 586.925 467.141 586.69 466.896C586.466 466.651 586.135 466.528 585.698 466.528C585.261 466.528 584.871 466.656 584.53 466.912C584.189 467.168 583.869 467.531 583.57 468V474H582.098V462.192L583.57 462.032V466.736C584.231 465.829 585.063 465.376 586.066 465.376ZM594.641 465.376C595.825 465.376 596.742 465.771 597.393 466.56C598.054 467.349 598.385 468.421 598.385 469.776C598.385 470.651 598.236 471.424 597.937 472.096C597.638 472.757 597.206 473.275 596.641 473.648C596.076 474.011 595.404 474.192 594.625 474.192C593.441 474.192 592.518 473.797 591.857 473.008C591.196 472.219 590.865 471.147 590.865 469.792C590.865 468.917 591.014 468.149 591.313 467.488C591.612 466.816 592.044 466.299 592.609 465.936C593.174 465.563 593.852 465.376 594.641 465.376ZM594.641 466.56C593.18 466.56 592.449 467.637 592.449 469.792C592.449 471.936 593.174 473.008 594.625 473.008C596.076 473.008 596.801 471.931 596.801 469.776C596.801 467.632 596.081 466.56 594.641 466.56ZM604.481 465.376C604.78 465.376 605.057 465.408 605.313 465.472L605.041 466.912C604.785 466.848 604.54 466.816 604.305 466.816C603.782 466.816 603.361 467.008 603.041 467.392C602.721 467.776 602.47 468.373 602.289 469.184V474H600.817V465.568H602.081L602.225 467.28C602.449 466.651 602.753 466.176 603.137 465.856C603.521 465.536 603.969 465.376 604.481 465.376ZM612.872 469.536C612.872 469.781 612.862 470.032 612.84 470.288H607.464C607.528 471.216 607.763 471.899 608.168 472.336C608.574 472.773 609.096 472.992 609.736 472.992C610.142 472.992 610.515 472.933 610.856 472.816C611.198 472.699 611.555 472.512 611.928 472.256L612.568 473.136C611.672 473.84 610.691 474.192 609.624 474.192C608.451 474.192 607.534 473.808 606.872 473.04C606.222 472.272 605.896 471.216 605.896 469.872C605.896 468.997 606.035 468.224 606.312 467.552C606.6 466.869 607.006 466.336 607.528 465.952C608.062 465.568 608.686 465.376 609.4 465.376C610.52 465.376 611.379 465.744 611.976 466.48C612.574 467.216 612.872 468.235 612.872 469.536ZM611.416 469.104C611.416 468.272 611.251 467.637 610.92 467.2C610.59 466.763 610.094 466.544 609.432 466.544C608.227 466.544 607.571 467.429 607.464 469.2H611.416V469.104ZM621.41 461.184V475.568H621.058V461.184H621.41ZM640.237 474H638.765L638.381 469.024C638.221 467.072 638.131 465.573 638.109 464.528L635.725 472.752H634.301L631.789 464.512C631.789 465.845 631.72 467.387 631.581 469.136L631.213 474H629.773L630.685 462.976H632.733L635.053 470.992L637.261 462.976H639.325L640.237 474ZM648.434 472.032C648.434 472.373 648.493 472.629 648.61 472.8C648.728 472.96 648.904 473.083 649.138 473.168L648.802 474.192C648.365 474.139 648.013 474.016 647.746 473.824C647.48 473.632 647.282 473.333 647.154 472.928C646.589 473.771 645.752 474.192 644.642 474.192C643.81 474.192 643.154 473.957 642.674 473.488C642.194 473.019 641.954 472.405 641.954 471.648C641.954 470.752 642.274 470.064 642.914 469.584C643.565 469.104 644.482 468.864 645.666 468.864H646.962V468.24C646.962 467.643 646.818 467.216 646.53 466.96C646.242 466.704 645.8 466.576 645.202 466.576C644.584 466.576 643.826 466.725 642.93 467.024L642.562 465.952C643.608 465.568 644.578 465.376 645.474 465.376C646.466 465.376 647.208 465.621 647.698 466.112C648.189 466.592 648.434 467.28 648.434 468.176V472.032ZM644.978 473.088C645.821 473.088 646.482 472.651 646.962 471.776V469.84H645.858C644.301 469.84 643.522 470.416 643.522 471.568C643.522 472.069 643.645 472.448 643.89 472.704C644.136 472.96 644.498 473.088 644.978 473.088ZM652.981 474.192C652.437 474.192 652.005 474.032 651.685 473.712C651.376 473.381 651.221 472.923 651.221 472.336V462.176L652.693 462V472.304C652.693 472.539 652.731 472.709 652.805 472.816C652.891 472.923 653.029 472.976 653.221 472.976C653.424 472.976 653.605 472.944 653.765 472.88L654.149 473.904C653.797 474.096 653.408 474.192 652.981 474.192ZM657.461 465.568V474H655.989V465.568H657.461ZM656.709 461.52C657.018 461.52 657.269 461.616 657.461 461.808C657.653 462 657.749 462.24 657.749 462.528C657.749 462.816 657.653 463.056 657.461 463.248C657.269 463.429 657.018 463.52 656.709 463.52C656.41 463.52 656.165 463.429 655.973 463.248C655.781 463.056 655.685 462.816 655.685 462.528C655.685 462.24 655.781 462 655.973 461.808C656.165 461.616 656.41 461.52 656.709 461.52ZM664.36 465.376C665.32 465.376 666.083 465.765 666.648 466.544C667.214 467.312 667.496 468.389 667.496 469.776C667.496 470.651 667.363 471.424 667.096 472.096C666.83 472.757 666.446 473.275 665.944 473.648C665.443 474.011 664.856 474.192 664.184 474.192C663.299 474.192 662.552 473.819 661.944 473.072L661.8 474H660.504V462.176L661.976 462V466.624C662.584 465.792 663.379 465.376 664.36 465.376ZM663.832 473.024C664.483 473.024 664.99 472.763 665.352 472.24C665.726 471.707 665.912 470.885 665.912 469.776C665.912 468.635 665.742 467.813 665.4 467.312C665.059 466.8 664.574 466.544 663.944 466.544C663.198 466.544 662.542 466.981 661.976 467.856V471.888C662.2 472.24 662.472 472.517 662.792 472.72C663.123 472.923 663.47 473.024 663.832 473.024ZM676.276 474H675.012L674.9 472.688C674.58 473.211 674.212 473.595 673.796 473.84C673.38 474.075 672.874 474.192 672.276 474.192C671.54 474.192 670.964 473.968 670.548 473.52C670.132 473.072 669.924 472.437 669.924 471.616V465.568H671.396V471.456C671.396 472.032 671.498 472.443 671.7 472.688C671.903 472.923 672.234 473.04 672.692 473.04C673.514 473.04 674.218 472.555 674.804 471.584V465.568H676.276V474ZM679.701 471.968C680.021 471.968 680.288 472.075 680.501 472.288C680.714 472.501 680.821 472.763 680.821 473.072C680.821 473.403 680.725 473.781 680.533 474.208L679.461 476.656H678.405L679.045 474C678.906 473.893 678.794 473.76 678.709 473.6C678.634 473.44 678.597 473.264 678.597 473.072C678.597 472.763 678.704 472.501 678.917 472.288C679.13 472.075 679.392 471.968 679.701 471.968ZM691.331 462.784C691.992 462.784 692.547 462.869 692.995 463.04C693.454 463.211 693.918 463.488 694.387 463.872L693.555 464.848C692.883 464.304 692.174 464.032 691.427 464.032C690.51 464.032 689.768 464.384 689.203 465.088C688.648 465.792 688.371 466.923 688.371 468.48C688.371 469.995 688.648 471.115 689.203 471.84C689.758 472.555 690.494 472.912 691.411 472.912C691.88 472.912 692.291 472.832 692.643 472.672C692.995 472.512 693.368 472.288 693.763 472L694.515 472.96C694.174 473.312 693.736 473.605 693.203 473.84C692.67 474.075 692.056 474.192 691.363 474.192C690.467 474.192 689.667 473.973 688.963 473.536C688.27 473.088 687.726 472.437 687.331 471.584C686.947 470.72 686.755 469.685 686.755 468.48C686.755 467.275 686.958 466.245 687.363 465.392C687.768 464.528 688.318 463.877 689.011 463.44C689.704 463.003 690.478 462.784 691.331 462.784ZM702.3 474L701.468 471.232H697.292L696.46 474H694.924L698.46 462.976H700.38L703.9 474H702.3ZM697.66 470H701.1L699.388 464.24L697.66 470Z" fill="white"/>
<path d="M598.378 75.784C599.039 75.784 599.594 75.8693 600.042 76.04C600.501 76.2107 600.965 76.488 601.434 76.872L600.602 77.848C599.93 77.304 599.221 77.032 598.474 77.032C597.557 77.032 596.815 77.384 596.25 78.088C595.695 78.792 595.418 79.9227 595.418 81.48C595.418 82.9947 595.695 84.1147 596.25 84.84C596.805 85.5547 597.541 85.912 598.458 85.912C598.927 85.912 599.338 85.832 599.69 85.672C600.042 85.512 600.415 85.288 600.81 85L601.562 85.96C601.221 86.312 600.783 86.6053 600.25 86.84C599.717 87.0747 599.103 87.192 598.41 87.192C597.514 87.192 596.714 86.9733 596.01 86.536C595.317 86.088 594.773 85.4373 594.378 84.584C593.994 83.72 593.802 82.6853 593.802 81.48C593.802 80.2747 594.005 79.2453 594.41 78.392C594.815 77.528 595.365 76.8773 596.058 76.44C596.751 76.0027 597.525 75.784 598.378 75.784ZM609.401 87H608.137L608.025 85.688C607.705 86.2107 607.337 86.5947 606.921 86.84C606.505 87.0747 605.999 87.192 605.401 87.192C604.665 87.192 604.089 86.968 603.673 86.52C603.257 86.072 603.049 85.4373 603.049 84.616V78.568H604.521V84.456C604.521 85.032 604.623 85.4427 604.825 85.688C605.028 85.9227 605.359 86.04 605.817 86.04C606.639 86.04 607.343 85.5547 607.929 84.584V78.568H609.401V87ZM616.106 78.376C616.405 78.376 616.682 78.408 616.938 78.472L616.666 79.912C616.41 79.848 616.165 79.816 615.93 79.816C615.407 79.816 614.986 80.008 614.666 80.392C614.346 80.776 614.095 81.3733 613.914 82.184V87H612.442V78.568H613.706L613.85 80.28C614.074 79.6507 614.378 79.176 614.762 78.856C615.146 78.536 615.594 78.376 616.106 78.376ZM622.278 78.376C622.576 78.376 622.854 78.408 623.11 78.472L622.838 79.912C622.582 79.848 622.336 79.816 622.102 79.816C621.579 79.816 621.158 80.008 620.838 80.392C620.518 80.776 620.267 81.3733 620.086 82.184V87H618.614V78.568H619.878L620.022 80.28C620.246 79.6507 620.55 79.176 620.934 78.856C621.318 78.536 621.766 78.376 622.278 78.376ZM630.669 82.536C630.669 82.7813 630.659 83.032 630.637 83.288H625.261C625.325 84.216 625.56 84.8987 625.965 85.336C626.371 85.7733 626.893 85.992 627.533 85.992C627.939 85.992 628.312 85.9333 628.653 85.816C628.995 85.6987 629.352 85.512 629.725 85.256L630.365 86.136C629.469 86.84 628.488 87.192 627.421 87.192C626.248 87.192 625.331 86.808 624.669 86.04C624.019 85.272 623.693 84.216 623.693 82.872C623.693 81.9973 623.832 81.224 624.109 80.552C624.397 79.8693 624.803 79.336 625.325 78.952C625.859 78.568 626.483 78.376 627.197 78.376C628.317 78.376 629.176 78.744 629.773 79.48C630.371 80.216 630.669 81.2347 630.669 82.536ZM629.213 82.104C629.213 81.272 629.048 80.6373 628.717 80.2C628.387 79.7627 627.891 79.544 627.229 79.544C626.024 79.544 625.368 80.4293 625.261 82.2H629.213V82.104ZM636.988 78.376C637.756 78.376 638.353 78.6053 638.78 79.064C639.217 79.5227 639.436 80.152 639.436 80.952V87H637.964V81.16C637.964 80.5627 637.852 80.1413 637.628 79.896C637.404 79.6507 637.073 79.528 636.636 79.528C636.188 79.528 635.793 79.656 635.452 79.912C635.111 80.168 634.791 80.536 634.492 81.016V87H633.02V78.568H634.284L634.412 79.816C634.711 79.368 635.079 79.016 635.516 78.76C635.964 78.504 636.455 78.376 636.988 78.376ZM646.651 86.616C646.096 87 645.467 87.192 644.763 87.192C644.048 87.192 643.488 86.9893 643.083 86.584C642.688 86.168 642.491 85.5707 642.491 84.792V79.704H641.019V78.568H642.491V76.664L643.963 76.488V78.568H645.963L645.803 79.704H643.963V84.728C643.963 85.1653 644.038 85.4853 644.187 85.688C644.347 85.88 644.608 85.976 644.971 85.976C645.302 85.976 645.675 85.864 646.091 85.64L646.651 86.616ZM654.011 75.976V85.672H658.539L658.363 87H652.491V75.976H654.011ZM663.141 78.376C664.325 78.376 665.242 78.7707 665.893 79.56C666.554 80.3493 666.885 81.4213 666.885 82.776C666.885 83.6507 666.736 84.424 666.437 85.096C666.138 85.7573 665.706 86.2747 665.141 86.648C664.576 87.0107 663.904 87.192 663.125 87.192C661.941 87.192 661.018 86.7973 660.357 86.008C659.696 85.2187 659.365 84.1467 659.365 82.792C659.365 81.9173 659.514 81.1493 659.813 80.488C660.112 79.816 660.544 79.2987 661.109 78.936C661.674 78.5627 662.352 78.376 663.141 78.376ZM663.141 79.56C661.68 79.56 660.949 80.6373 660.949 82.792C660.949 84.936 661.674 86.008 663.125 86.008C664.576 86.008 665.301 84.9307 665.301 82.776C665.301 80.632 664.581 79.56 663.141 79.56ZM672.389 78.376C672.89 78.376 673.349 78.4507 673.765 78.6C674.181 78.7387 674.581 78.968 674.965 79.288L674.261 80.216C673.962 80.0027 673.669 79.848 673.381 79.752C673.104 79.6453 672.794 79.592 672.453 79.592C671.77 79.592 671.237 79.864 670.853 80.408C670.48 80.952 670.293 81.7573 670.293 82.824C670.293 83.8907 670.48 84.68 670.853 85.192C671.226 85.6933 671.76 85.944 672.453 85.944C672.784 85.944 673.088 85.896 673.365 85.8C673.642 85.6933 673.952 85.528 674.293 85.304L674.965 86.264C674.197 86.8827 673.338 87.192 672.389 87.192C671.248 87.192 670.346 86.808 669.685 86.04C669.034 85.272 668.709 84.2107 668.709 82.856C668.709 81.96 668.858 81.176 669.157 80.504C669.456 79.832 669.877 79.3093 670.421 78.936C670.976 78.5627 671.632 78.376 672.389 78.376ZM682.481 85.032C682.481 85.3733 682.54 85.6293 682.657 85.8C682.775 85.96 682.951 86.0827 683.185 86.168L682.849 87.192C682.412 87.1387 682.06 87.016 681.793 86.824C681.527 86.632 681.329 86.3333 681.201 85.928C680.636 86.7707 679.799 87.192 678.689 87.192C677.857 87.192 677.201 86.9573 676.721 86.488C676.241 86.0187 676.001 85.4053 676.001 84.648C676.001 83.752 676.321 83.064 676.961 82.584C677.612 82.104 678.529 81.864 679.713 81.864H681.009V81.24C681.009 80.6427 680.865 80.216 680.577 79.96C680.289 79.704 679.847 79.576 679.249 79.576C678.631 79.576 677.873 79.7253 676.977 80.024L676.609 78.952C677.655 78.568 678.625 78.376 679.521 78.376C680.513 78.376 681.255 78.6213 681.745 79.112C682.236 79.592 682.481 80.28 682.481 81.176V85.032ZM679.025 86.088C679.868 86.088 680.529 85.6507 681.009 84.776V82.84H679.905C678.348 82.84 677.569 83.416 677.569 84.568C677.569 85.0693 677.692 85.448 677.937 85.704C678.183 85.96 678.545 86.088 679.025 86.088ZM689.76 86.616C689.206 87 688.576 87.192 687.872 87.192C687.158 87.192 686.598 86.9893 686.192 86.584C685.798 86.168 685.6 85.5707 685.6 84.792V79.704H684.128V78.568H685.6V76.664L687.072 76.488V78.568H689.072L688.912 79.704H687.072V84.728C687.072 85.1653 687.147 85.4853 687.296 85.688C687.456 85.88 687.718 85.976 688.08 85.976C688.411 85.976 688.784 85.864 689.2 85.64L689.76 86.616ZM692.758 78.568V87H691.286V78.568H692.758ZM692.006 74.52C692.315 74.52 692.566 74.616 692.758 74.808C692.95 75 693.046 75.24 693.046 75.528C693.046 75.816 692.95 76.056 692.758 76.248C692.566 76.4293 692.315 76.52 692.006 76.52C691.707 76.52 691.462 76.4293 691.27 76.248C691.078 76.056 690.982 75.816 690.982 75.528C690.982 75.24 691.078 75 691.27 74.808C691.462 74.616 691.707 74.52 692.006 74.52ZM698.969 78.376C700.153 78.376 701.071 78.7707 701.721 79.56C702.383 80.3493 702.713 81.4213 702.713 82.776C702.713 83.6507 702.564 84.424 702.265 85.096C701.967 85.7573 701.535 86.2747 700.969 86.648C700.404 87.0107 699.732 87.192 698.953 87.192C697.769 87.192 696.847 86.7973 696.185 86.008C695.524 85.2187 695.193 84.1467 695.193 82.792C695.193 81.9173 695.343 81.1493 695.641 80.488C695.94 79.816 696.372 79.2987 696.937 78.936C697.503 78.5627 698.18 78.376 698.969 78.376ZM698.969 79.56C697.508 79.56 696.777 80.6373 696.777 82.792C696.777 84.936 697.503 86.008 698.953 86.008C700.404 86.008 701.129 84.9307 701.129 82.776C701.129 80.632 700.409 79.56 698.969 79.56ZM709.113 78.376C709.881 78.376 710.478 78.6053 710.905 79.064C711.342 79.5227 711.561 80.152 711.561 80.952V87H710.089V81.16C710.089 80.5627 709.977 80.1413 709.753 79.896C709.529 79.6507 709.198 79.528 708.761 79.528C708.313 79.528 707.918 79.656 707.577 79.912C707.236 80.168 706.916 80.536 706.617 81.016V87H705.145V78.568H706.409L706.537 79.816C706.836 79.368 707.204 79.016 707.641 78.76C708.089 78.504 708.58 78.376 709.113 78.376Z" fill="white"/>
</svg>
