<svg width="1001" height="496" viewBox="0 0 1001 496" fill="none" xmlns="http://www.w3.org/2000/svg">
<g opacity="0.29827">
<path d="M1008.08 163.448L443.182 -356.858V-747.19L28.1096 -770C24.9043 -762.456 4.36709 -740.714 7.57176 -728.596C11.43 -714.102 30.8387 -718.735 36.4776 -709.409C43.0661 -698.42 31.7291 -653.749 28.3457 -640.86C21.8759 -616.445 7.09676 -596.665 2.82235 -572.25C-4.35982 -531.263 10.1824 -534.53 37.7242 -508.927C84.141 -465.742 46.9244 -420.952 58.6176 -370.223C68.1146 -328.878 109.605 -307.554 124.8 -266.211C136.553 -234.37 152.697 -226.233 177.746 -202.947C177.153 -217.084 164.51 -258.785 188.253 -255.102C211.817 -251.478 202.736 -216.669 207.247 -202.115C211.045 -189.997 237.933 -165.761 215.616 -154.593C208.196 -150.91 187.066 -165.582 178.577 -169.503C184.572 -150.791 180.774 -131.367 190.271 -113.487C201.608 -92.162 213.835 -100.359 228.853 -88.7754C244.344 -76.8355 242.683 -63.1137 235.797 -45.0554C228.615 -26.2247 221.196 -29.1352 232.592 -6.44342C240.843 9.95119 254.85 30.7421 266.9 43.2164C273.904 50.4634 281.502 52.1267 288.506 61.3932C294.323 69.1155 292.067 79.2142 299.012 86.1638C310.883 98.1037 331.006 98.282 340.384 113.904C350.831 131.309 338.96 144.437 369.706 142.833C371.309 177.643 377.897 209.185 377.541 243.994C394.695 250.825 422.414 242.687 440.399 239.063C458.266 263.18 481.355 246.429 501.774 259.558C510.678 265.26 508.837 279.517 514.239 284.506C525.339 294.723 533.529 288.308 547.301 291.872C557.51 294.486 565.404 301.97 575.138 304.703C584.338 307.257 599.475 301.258 606.301 309.396C614.492 319.138 600.78 336.958 613.127 344.799C623.395 351.333 638.115 335.77 648.088 338.027C659.721 340.7 693.079 371.174 701.271 381.212C710.59 392.677 719.969 414.062 725.25 428.793C733.501 451.841 732.373 463.127 749.408 479.998C760.27 490.75 749.942 491.522 767.63 494.67C779.204 496.749 794.518 488.374 806.212 487.067C830.549 484.394 855.122 489.027 879.102 484.453C901.421 480.176 922.729 473.166 945.64 469.899C965.465 467.048 1000.37 469.246 1017.94 459.801C1036.99 449.643 1038.71 426.654 1011.17 430.932C1008.97 416.26 1018.77 396.003 1007.85 385.847C1023.04 365.056 1028.56 350.384 1030.93 324.959C1032 313.792 1032.48 301.436 1038 292.05C1043.4 282.783 1058.59 277.259 1061.56 269.299C1066.13 256.943 1058.83 251.419 1053.25 244.528C1049.69 240.073 1039.54 242.212 1036.63 238.291C1031.23 231.103 1036.57 223.678 1033.6 216.431C1024.94 195.462 1014.61 187.205 1008.08 163.444C1008.26 167.424 1008.44 171.463 1008.2 175.384" stroke="white" stroke-width="2" stroke-linecap="round" stroke-linejoin="round"/>
</g>
<path d="M726.321 83.9446C695.331 103.559 700.947 126.48 696.172 154.355C694.758 162.615 687.126 171.112 678.733 172.58C660.684 175.735 646.551 131.865 634.759 147.695C622.58 164.044 627.544 208.316 627.308 210.785C625.235 232.458 598.379 266.438 576.532 278.139C560.986 286.466 539.557 257.723 535.477 245.947C508.753 168.83 529.262 194.872 478.473 129.602C474.585 124.606 470.185 119.705 463.907 117.522C457.44 115.274 449.297 123.93 446.31 129.987C436.412 150.058 433.372 197.473 407.905 211.741C400.09 216.12 392.025 215.842 384.181 220.05C378.036 223.346 372.732 229.135 367.007 233.677" stroke="white" stroke-width="2"/>
<path fill-rule="evenodd" clip-rule="evenodd" d="M570 319C571.657 319 573 317.657 573 316C573 314.343 571.657 313 570 313C568.343 313 567 314.343 567 316C567 317.657 568.343 319 570 319Z" fill="#4AF6CD"/>
<path fill-rule="evenodd" clip-rule="evenodd" d="M661 363C662.657 363 664 361.657 664 360C664 358.343 662.657 357 661 357C659.343 357 658 358.343 658 360C658 361.657 659.343 363 661 363Z" fill="#4AF6CD"/>
<path fill-rule="evenodd" clip-rule="evenodd" d="M725 471C726.657 471 728 469.657 728 468C728 466.343 726.657 465 725 465C723.343 465 722 466.343 722 468C722 469.657 723.343 471 725 471Z" fill="#4AF6CD"/>
<path fill-rule="evenodd" clip-rule="evenodd" d="M368.5 235C372.09 235 375 232.09 375 228.5C375 224.91 372.09 222 368.5 222C364.91 222 362 224.91 362 228.5C362 232.09 364.91 235 368.5 235Z" fill="#4AF6CD"/>
<path fill-rule="evenodd" clip-rule="evenodd" d="M729.5 91C733.09 91 736 88.0899 736 84.5C736 80.9101 733.09 78 729.5 78C725.91 78 723 80.9101 723 84.5C723 88.0899 725.91 91 729.5 91Z" fill="#4AF6CD"/>
<path d="M181.359 231H179.327L174.847 221.64C174.911 222.376 174.959 223.059 174.991 223.688C175.034 224.307 175.055 225.059 175.055 225.944V231H173.631V219.976H175.615L180.143 229.352C180.111 229.075 180.069 228.589 180.015 227.896C179.962 227.203 179.935 226.568 179.935 225.992V219.976H181.359V231ZM187.641 222.376C188.825 222.376 189.742 222.771 190.393 223.56C191.054 224.349 191.385 225.421 191.385 226.776C191.385 227.651 191.236 228.424 190.937 229.096C190.638 229.757 190.206 230.275 189.641 230.648C189.076 231.011 188.404 231.192 187.625 231.192C186.441 231.192 185.518 230.797 184.857 230.008C184.196 229.219 183.865 228.147 183.865 226.792C183.865 225.917 184.014 225.149 184.313 224.488C184.612 223.816 185.044 223.299 185.609 222.936C186.174 222.563 186.852 222.376 187.641 222.376ZM187.641 223.56C186.18 223.56 185.449 224.637 185.449 226.792C185.449 228.936 186.174 230.008 187.625 230.008C189.076 230.008 189.801 228.931 189.801 226.776C189.801 224.632 189.081 223.56 187.641 223.56ZM197.481 222.376C197.78 222.376 198.057 222.408 198.313 222.472L198.041 223.912C197.785 223.848 197.54 223.816 197.305 223.816C196.782 223.816 196.361 224.008 196.041 224.392C195.721 224.776 195.47 225.373 195.289 226.184V231H193.817V222.568H195.081L195.225 224.28C195.449 223.651 195.753 223.176 196.137 222.856C196.521 222.536 196.969 222.376 197.481 222.376ZM204.245 230.616C203.69 231 203.061 231.192 202.357 231.192C201.642 231.192 201.082 230.989 200.677 230.584C200.282 230.168 200.085 229.571 200.085 228.792V223.704H198.613V222.568H200.085V220.664L201.557 220.488V222.568H203.557L203.397 223.704H201.557V228.728C201.557 229.165 201.631 229.485 201.781 229.688C201.941 229.88 202.202 229.976 202.565 229.976C202.895 229.976 203.269 229.864 203.685 229.64L204.245 230.616ZM209.738 222.376C210.506 222.376 211.103 222.605 211.53 223.064C211.967 223.523 212.186 224.152 212.186 224.952V231H210.714V225.16C210.714 224.563 210.597 224.141 210.362 223.896C210.138 223.651 209.807 223.528 209.37 223.528C208.933 223.528 208.543 223.656 208.202 223.912C207.861 224.168 207.541 224.531 207.242 225V231H205.77V219.192L207.242 219.032V223.736C207.903 222.829 208.735 222.376 209.738 222.376ZM222.179 219.784C222.915 219.784 223.545 219.891 224.067 220.104C224.59 220.307 225.097 220.627 225.587 221.064L224.755 221.992C224.339 221.661 223.929 221.421 223.523 221.272C223.129 221.112 222.702 221.032 222.243 221.032C221.667 221.032 221.193 221.165 220.819 221.432C220.446 221.699 220.259 222.088 220.259 222.6C220.259 222.92 220.323 223.192 220.451 223.416C220.579 223.629 220.814 223.827 221.155 224.008C221.507 224.189 222.014 224.381 222.675 224.584C223.369 224.797 223.945 225.027 224.403 225.272C224.862 225.517 225.23 225.859 225.507 226.296C225.795 226.723 225.939 227.267 225.939 227.928C225.939 228.568 225.779 229.133 225.459 229.624C225.15 230.115 224.697 230.499 224.099 230.776C223.513 231.053 222.814 231.192 222.003 231.192C220.478 231.192 219.23 230.717 218.259 229.768L219.091 228.84C219.539 229.203 219.993 229.48 220.451 229.672C220.91 229.853 221.422 229.944 221.987 229.944C222.67 229.944 223.235 229.779 223.683 229.448C224.131 229.107 224.355 228.616 224.355 227.976C224.355 227.613 224.286 227.315 224.147 227.08C224.009 226.835 223.769 226.616 223.427 226.424C223.097 226.232 222.611 226.04 221.971 225.848C220.841 225.507 220.014 225.096 219.491 224.616C218.969 224.136 218.707 223.485 218.707 222.664C218.707 222.109 218.851 221.613 219.139 221.176C219.438 220.739 219.849 220.397 220.371 220.152C220.905 219.907 221.507 219.784 222.179 219.784ZM232.066 222.376C232.834 222.376 233.431 222.605 233.858 223.064C234.295 223.523 234.514 224.152 234.514 224.952V231H233.042V225.16C233.042 224.563 232.925 224.141 232.69 223.896C232.466 223.651 232.135 223.528 231.698 223.528C231.261 223.528 230.871 223.656 230.53 223.912C230.189 224.168 229.869 224.531 229.57 225V231H228.098V219.192L229.57 219.032V223.736C230.231 222.829 231.063 222.376 232.066 222.376ZM240.641 222.376C241.825 222.376 242.742 222.771 243.393 223.56C244.054 224.349 244.385 225.421 244.385 226.776C244.385 227.651 244.236 228.424 243.937 229.096C243.638 229.757 243.206 230.275 242.641 230.648C242.076 231.011 241.404 231.192 240.625 231.192C239.441 231.192 238.518 230.797 237.857 230.008C237.196 229.219 236.865 228.147 236.865 226.792C236.865 225.917 237.014 225.149 237.313 224.488C237.612 223.816 238.044 223.299 238.609 222.936C239.174 222.563 239.852 222.376 240.641 222.376ZM240.641 223.56C239.18 223.56 238.449 224.637 238.449 226.792C238.449 228.936 239.174 230.008 240.625 230.008C242.076 230.008 242.801 228.931 242.801 226.776C242.801 224.632 242.081 223.56 240.641 223.56ZM250.481 222.376C250.78 222.376 251.057 222.408 251.313 222.472L251.041 223.912C250.785 223.848 250.54 223.816 250.305 223.816C249.782 223.816 249.361 224.008 249.041 224.392C248.721 224.776 248.47 225.373 248.289 226.184V231H246.817V222.568H248.081L248.225 224.28C248.449 223.651 248.753 223.176 249.137 222.856C249.521 222.536 249.969 222.376 250.481 222.376ZM258.872 226.536C258.872 226.781 258.862 227.032 258.84 227.288H253.464C253.528 228.216 253.763 228.899 254.168 229.336C254.574 229.773 255.096 229.992 255.736 229.992C256.142 229.992 256.515 229.933 256.856 229.816C257.198 229.699 257.555 229.512 257.928 229.256L258.568 230.136C257.672 230.84 256.691 231.192 255.624 231.192C254.451 231.192 253.534 230.808 252.872 230.04C252.222 229.272 251.896 228.216 251.896 226.872C251.896 225.997 252.035 225.224 252.312 224.552C252.6 223.869 253.006 223.336 253.528 222.952C254.062 222.568 254.686 222.376 255.4 222.376C256.52 222.376 257.379 222.744 257.976 223.48C258.574 224.216 258.872 225.235 258.872 226.536ZM257.416 226.104C257.416 225.272 257.251 224.637 256.92 224.2C256.59 223.763 256.094 223.544 255.432 223.544C254.227 223.544 253.571 224.429 253.464 226.2H257.416V226.104ZM267.41 218.184V232.568H267.058V218.184H267.41ZM286.237 231H284.765L284.381 226.024C284.221 224.072 284.131 222.573 284.109 221.528L281.725 229.752H280.301L277.789 221.512C277.789 222.845 277.72 224.387 277.581 226.136L277.213 231H275.773L276.685 219.976H278.733L281.053 227.992L283.261 219.976H285.325L286.237 231ZM294.434 229.032C294.434 229.373 294.493 229.629 294.61 229.8C294.728 229.96 294.904 230.083 295.138 230.168L294.802 231.192C294.365 231.139 294.013 231.016 293.746 230.824C293.48 230.632 293.282 230.333 293.154 229.928C292.589 230.771 291.752 231.192 290.642 231.192C289.81 231.192 289.154 230.957 288.674 230.488C288.194 230.019 287.954 229.405 287.954 228.648C287.954 227.752 288.274 227.064 288.914 226.584C289.565 226.104 290.482 225.864 291.666 225.864H292.962V225.24C292.962 224.643 292.818 224.216 292.53 223.96C292.242 223.704 291.8 223.576 291.202 223.576C290.584 223.576 289.826 223.725 288.93 224.024L288.562 222.952C289.608 222.568 290.578 222.376 291.474 222.376C292.466 222.376 293.208 222.621 293.698 223.112C294.189 223.592 294.434 224.28 294.434 225.176V229.032ZM290.978 230.088C291.821 230.088 292.482 229.651 292.962 228.776V226.84H291.858C290.301 226.84 289.522 227.416 289.522 228.568C289.522 229.069 289.645 229.448 289.89 229.704C290.136 229.96 290.498 230.088 290.978 230.088ZM298.981 231.192C298.437 231.192 298.005 231.032 297.685 230.712C297.376 230.381 297.221 229.923 297.221 229.336V219.176L298.693 219V229.304C298.693 229.539 298.731 229.709 298.805 229.816C298.891 229.923 299.029 229.976 299.221 229.976C299.424 229.976 299.605 229.944 299.765 229.88L300.149 230.904C299.797 231.096 299.408 231.192 298.981 231.192ZM303.461 222.568V231H301.989V222.568H303.461ZM302.709 218.52C303.018 218.52 303.269 218.616 303.461 218.808C303.653 219 303.749 219.24 303.749 219.528C303.749 219.816 303.653 220.056 303.461 220.248C303.269 220.429 303.018 220.52 302.709 220.52C302.41 220.52 302.165 220.429 301.973 220.248C301.781 220.056 301.685 219.816 301.685 219.528C301.685 219.24 301.781 219 301.973 218.808C302.165 218.616 302.41 218.52 302.709 218.52ZM310.36 222.376C311.32 222.376 312.083 222.765 312.648 223.544C313.214 224.312 313.496 225.389 313.496 226.776C313.496 227.651 313.363 228.424 313.096 229.096C312.83 229.757 312.446 230.275 311.944 230.648C311.443 231.011 310.856 231.192 310.184 231.192C309.299 231.192 308.552 230.819 307.944 230.072L307.8 231H306.504V219.176L307.976 219V223.624C308.584 222.792 309.379 222.376 310.36 222.376ZM309.832 230.024C310.483 230.024 310.99 229.763 311.352 229.24C311.726 228.707 311.912 227.885 311.912 226.776C311.912 225.635 311.742 224.813 311.4 224.312C311.059 223.8 310.574 223.544 309.944 223.544C309.198 223.544 308.542 223.981 307.976 224.856V228.888C308.2 229.24 308.472 229.517 308.792 229.72C309.123 229.923 309.47 230.024 309.832 230.024ZM322.276 231H321.012L320.9 229.688C320.58 230.211 320.212 230.595 319.796 230.84C319.38 231.075 318.874 231.192 318.276 231.192C317.54 231.192 316.964 230.968 316.548 230.52C316.132 230.072 315.924 229.437 315.924 228.616V222.568H317.396V228.456C317.396 229.032 317.498 229.443 317.7 229.688C317.903 229.923 318.234 230.04 318.692 230.04C319.514 230.04 320.218 229.555 320.804 228.584V222.568H322.276V231ZM325.701 228.968C326.021 228.968 326.288 229.075 326.501 229.288C326.714 229.501 326.821 229.763 326.821 230.072C326.821 230.403 326.725 230.781 326.533 231.208L325.461 233.656H324.405L325.045 231C324.906 230.893 324.794 230.76 324.709 230.6C324.634 230.44 324.597 230.264 324.597 230.072C324.597 229.763 324.704 229.501 324.917 229.288C325.13 229.075 325.392 228.968 325.701 228.968ZM337.331 219.784C337.992 219.784 338.547 219.869 338.995 220.04C339.454 220.211 339.918 220.488 340.387 220.872L339.555 221.848C338.883 221.304 338.174 221.032 337.427 221.032C336.51 221.032 335.768 221.384 335.203 222.088C334.648 222.792 334.371 223.923 334.371 225.48C334.371 226.995 334.648 228.115 335.203 228.84C335.758 229.555 336.494 229.912 337.411 229.912C337.88 229.912 338.291 229.832 338.643 229.672C338.995 229.512 339.368 229.288 339.763 229L340.515 229.96C340.174 230.312 339.736 230.605 339.203 230.84C338.67 231.075 338.056 231.192 337.363 231.192C336.467 231.192 335.667 230.973 334.963 230.536C334.27 230.088 333.726 229.437 333.331 228.584C332.947 227.72 332.755 226.685 332.755 225.48C332.755 224.275 332.958 223.245 333.363 222.392C333.768 221.528 334.318 220.877 335.011 220.44C335.704 220.003 336.478 219.784 337.331 219.784ZM348.3 231L347.468 228.232H343.292L342.46 231H340.924L344.46 219.976H346.38L349.9 231H348.3ZM343.66 227H347.1L345.388 221.24L343.66 227Z" fill="white"/>
<path d="M598.378 75.784C599.039 75.784 599.594 75.8693 600.042 76.04C600.501 76.2107 600.965 76.488 601.434 76.872L600.602 77.848C599.93 77.304 599.221 77.032 598.474 77.032C597.557 77.032 596.815 77.384 596.25 78.088C595.695 78.792 595.418 79.9227 595.418 81.48C595.418 82.9947 595.695 84.1147 596.25 84.84C596.805 85.5547 597.541 85.912 598.458 85.912C598.927 85.912 599.338 85.832 599.69 85.672C600.042 85.512 600.415 85.288 600.81 85L601.562 85.96C601.221 86.312 600.783 86.6053 600.25 86.84C599.717 87.0747 599.103 87.192 598.41 87.192C597.514 87.192 596.714 86.9733 596.01 86.536C595.317 86.088 594.773 85.4373 594.378 84.584C593.994 83.72 593.802 82.6853 593.802 81.48C593.802 80.2747 594.005 79.2453 594.41 78.392C594.815 77.528 595.365 76.8773 596.058 76.44C596.751 76.0027 597.525 75.784 598.378 75.784ZM609.401 87H608.137L608.025 85.688C607.705 86.2107 607.337 86.5947 606.921 86.84C606.505 87.0747 605.999 87.192 605.401 87.192C604.665 87.192 604.089 86.968 603.673 86.52C603.257 86.072 603.049 85.4373 603.049 84.616V78.568H604.521V84.456C604.521 85.032 604.623 85.4427 604.825 85.688C605.028 85.9227 605.359 86.04 605.817 86.04C606.639 86.04 607.343 85.5547 607.929 84.584V78.568H609.401V87ZM616.106 78.376C616.405 78.376 616.682 78.408 616.938 78.472L616.666 79.912C616.41 79.848 616.165 79.816 615.93 79.816C615.407 79.816 614.986 80.008 614.666 80.392C614.346 80.776 614.095 81.3733 613.914 82.184V87H612.442V78.568H613.706L613.85 80.28C614.074 79.6507 614.378 79.176 614.762 78.856C615.146 78.536 615.594 78.376 616.106 78.376ZM622.278 78.376C622.576 78.376 622.854 78.408 623.11 78.472L622.838 79.912C622.582 79.848 622.336 79.816 622.102 79.816C621.579 79.816 621.158 80.008 620.838 80.392C620.518 80.776 620.267 81.3733 620.086 82.184V87H618.614V78.568H619.878L620.022 80.28C620.246 79.6507 620.55 79.176 620.934 78.856C621.318 78.536 621.766 78.376 622.278 78.376ZM630.669 82.536C630.669 82.7813 630.659 83.032 630.637 83.288H625.261C625.325 84.216 625.56 84.8987 625.965 85.336C626.371 85.7733 626.893 85.992 627.533 85.992C627.939 85.992 628.312 85.9333 628.653 85.816C628.995 85.6987 629.352 85.512 629.725 85.256L630.365 86.136C629.469 86.84 628.488 87.192 627.421 87.192C626.248 87.192 625.331 86.808 624.669 86.04C624.019 85.272 623.693 84.216 623.693 82.872C623.693 81.9973 623.832 81.224 624.109 80.552C624.397 79.8693 624.803 79.336 625.325 78.952C625.859 78.568 626.483 78.376 627.197 78.376C628.317 78.376 629.176 78.744 629.773 79.48C630.371 80.216 630.669 81.2347 630.669 82.536ZM629.213 82.104C629.213 81.272 629.048 80.6373 628.717 80.2C628.387 79.7627 627.891 79.544 627.229 79.544C626.024 79.544 625.368 80.4293 625.261 82.2H629.213V82.104ZM636.988 78.376C637.756 78.376 638.353 78.6053 638.78 79.064C639.217 79.5227 639.436 80.152 639.436 80.952V87H637.964V81.16C637.964 80.5627 637.852 80.1413 637.628 79.896C637.404 79.6507 637.073 79.528 636.636 79.528C636.188 79.528 635.793 79.656 635.452 79.912C635.111 80.168 634.791 80.536 634.492 81.016V87H633.02V78.568H634.284L634.412 79.816C634.711 79.368 635.079 79.016 635.516 78.76C635.964 78.504 636.455 78.376 636.988 78.376ZM646.651 86.616C646.096 87 645.467 87.192 644.763 87.192C644.048 87.192 643.488 86.9893 643.083 86.584C642.688 86.168 642.491 85.5707 642.491 84.792V79.704H641.019V78.568H642.491V76.664L643.963 76.488V78.568H645.963L645.803 79.704H643.963V84.728C643.963 85.1653 644.038 85.4853 644.187 85.688C644.347 85.88 644.608 85.976 644.971 85.976C645.302 85.976 645.675 85.864 646.091 85.64L646.651 86.616ZM654.011 75.976V85.672H658.539L658.363 87H652.491V75.976H654.011ZM663.141 78.376C664.325 78.376 665.242 78.7707 665.893 79.56C666.554 80.3493 666.885 81.4213 666.885 82.776C666.885 83.6507 666.736 84.424 666.437 85.096C666.138 85.7573 665.706 86.2747 665.141 86.648C664.576 87.0107 663.904 87.192 663.125 87.192C661.941 87.192 661.018 86.7973 660.357 86.008C659.696 85.2187 659.365 84.1467 659.365 82.792C659.365 81.9173 659.514 81.1493 659.813 80.488C660.112 79.816 660.544 79.2987 661.109 78.936C661.674 78.5627 662.352 78.376 663.141 78.376ZM663.141 79.56C661.68 79.56 660.949 80.6373 660.949 82.792C660.949 84.936 661.674 86.008 663.125 86.008C664.576 86.008 665.301 84.9307 665.301 82.776C665.301 80.632 664.581 79.56 663.141 79.56ZM672.389 78.376C672.89 78.376 673.349 78.4507 673.765 78.6C674.181 78.7387 674.581 78.968 674.965 79.288L674.261 80.216C673.962 80.0027 673.669 79.848 673.381 79.752C673.104 79.6453 672.794 79.592 672.453 79.592C671.77 79.592 671.237 79.864 670.853 80.408C670.48 80.952 670.293 81.7573 670.293 82.824C670.293 83.8907 670.48 84.68 670.853 85.192C671.226 85.6933 671.76 85.944 672.453 85.944C672.784 85.944 673.088 85.896 673.365 85.8C673.642 85.6933 673.952 85.528 674.293 85.304L674.965 86.264C674.197 86.8827 673.338 87.192 672.389 87.192C671.248 87.192 670.346 86.808 669.685 86.04C669.034 85.272 668.709 84.2107 668.709 82.856C668.709 81.96 668.858 81.176 669.157 80.504C669.456 79.832 669.877 79.3093 670.421 78.936C670.976 78.5627 671.632 78.376 672.389 78.376ZM682.481 85.032C682.481 85.3733 682.54 85.6293 682.657 85.8C682.775 85.96 682.951 86.0827 683.185 86.168L682.849 87.192C682.412 87.1387 682.06 87.016 681.793 86.824C681.527 86.632 681.329 86.3333 681.201 85.928C680.636 86.7707 679.799 87.192 678.689 87.192C677.857 87.192 677.201 86.9573 676.721 86.488C676.241 86.0187 676.001 85.4053 676.001 84.648C676.001 83.752 676.321 83.064 676.961 82.584C677.612 82.104 678.529 81.864 679.713 81.864H681.009V81.24C681.009 80.6427 680.865 80.216 680.577 79.96C680.289 79.704 679.847 79.576 679.249 79.576C678.631 79.576 677.873 79.7253 676.977 80.024L676.609 78.952C677.655 78.568 678.625 78.376 679.521 78.376C680.513 78.376 681.255 78.6213 681.745 79.112C682.236 79.592 682.481 80.28 682.481 81.176V85.032ZM679.025 86.088C679.868 86.088 680.529 85.6507 681.009 84.776V82.84H679.905C678.348 82.84 677.569 83.416 677.569 84.568C677.569 85.0693 677.692 85.448 677.937 85.704C678.183 85.96 678.545 86.088 679.025 86.088ZM689.76 86.616C689.206 87 688.576 87.192 687.872 87.192C687.158 87.192 686.598 86.9893 686.192 86.584C685.798 86.168 685.6 85.5707 685.6 84.792V79.704H684.128V78.568H685.6V76.664L687.072 76.488V78.568H689.072L688.912 79.704H687.072V84.728C687.072 85.1653 687.147 85.4853 687.296 85.688C687.456 85.88 687.718 85.976 688.08 85.976C688.411 85.976 688.784 85.864 689.2 85.64L689.76 86.616ZM692.758 78.568V87H691.286V78.568H692.758ZM692.006 74.52C692.315 74.52 692.566 74.616 692.758 74.808C692.95 75 693.046 75.24 693.046 75.528C693.046 75.816 692.95 76.056 692.758 76.248C692.566 76.4293 692.315 76.52 692.006 76.52C691.707 76.52 691.462 76.4293 691.27 76.248C691.078 76.056 690.982 75.816 690.982 75.528C690.982 75.24 691.078 75 691.27 74.808C691.462 74.616 691.707 74.52 692.006 74.52ZM698.969 78.376C700.153 78.376 701.071 78.7707 701.721 79.56C702.383 80.3493 702.713 81.4213 702.713 82.776C702.713 83.6507 702.564 84.424 702.265 85.096C701.967 85.7573 701.535 86.2747 700.969 86.648C700.404 87.0107 699.732 87.192 698.953 87.192C697.769 87.192 696.847 86.7973 696.185 86.008C695.524 85.2187 695.193 84.1467 695.193 82.792C695.193 81.9173 695.343 81.1493 695.641 80.488C695.94 79.816 696.372 79.2987 696.937 78.936C697.503 78.5627 698.18 78.376 698.969 78.376ZM698.969 79.56C697.508 79.56 696.777 80.6373 696.777 82.792C696.777 84.936 697.503 86.008 698.953 86.008C700.404 86.008 701.129 84.9307 701.129 82.776C701.129 80.632 700.409 79.56 698.969 79.56ZM709.113 78.376C709.881 78.376 710.478 78.6053 710.905 79.064C711.342 79.5227 711.561 80.152 711.561 80.952V87H710.089V81.16C710.089 80.5627 709.977 80.1413 709.753 79.896C709.529 79.6507 709.198 79.528 708.761 79.528C708.313 79.528 707.918 79.656 707.577 79.912C707.236 80.168 706.916 80.536 706.617 81.016V87H705.145V78.568H706.409L706.537 79.816C706.836 79.368 707.204 79.016 707.641 78.76C708.089 78.504 708.58 78.376 709.113 78.376Z" fill="white"/>
</svg>
